<svg width="41" height="48" viewBox="0 0 41 48" fill="none" xmlns="http://www.w3.org/2000/svg">
<path d="M3.41669 6.70508H13.6667C15.479 6.70508 17.2171 7.49737 18.4985 8.90763C19.7801 10.3179 20.5 12.2306 20.5 14.2251V40.5451C20.5 39.0494 19.96 37.6147 18.9989 36.557C18.0378 35.4994 16.7343 34.9051 15.375 34.9051H3.41669V6.70508Z" stroke="#7A9CA5" stroke-width="2" stroke-linecap="round" stroke-linejoin="round"/>
<path d="M37.5833 6.70508H27.3333C25.521 6.70508 23.7829 7.49737 22.5015 8.90763C21.2199 10.3179 20.5 12.2306 20.5 14.2251V40.5451C20.5 39.0494 21.04 37.6147 22.0011 36.557C22.9622 35.4994 24.2659 34.9051 25.625 34.9051H37.5833V6.70508Z" stroke="#7A9CA5" stroke-width="2" stroke-linecap="round" stroke-linejoin="round"/>
</svg>
