<svg width="40" height="47" viewBox="0 0 40 47" fill="none" xmlns="http://www.w3.org/2000/svg">
<path d="M18.3339 8.43066H6.66726C5.78321 8.43066 4.93537 8.81772 4.31024 9.50664C3.68512 10.1956 3.33392 11.13 3.33392 12.1043V37.8195C3.33392 38.7938 3.68512 39.7282 4.31024 40.4172C4.93537 41.1061 5.78321 41.4932 6.66726 41.4932H30.0005C30.8847 41.4932 31.7325 41.1061 32.3576 40.4172C32.9828 39.7282 33.3339 38.7938 33.3339 37.8195V24.962" stroke="#7A9CA5" stroke-width="2" stroke-linecap="round" stroke-linejoin="round"/>
<path d="M30.8339 5.67542C31.4969 4.94469 32.3962 4.53418 33.3339 4.53418C34.2717 4.53418 35.1708 4.94469 35.8339 5.67542C36.4969 6.40615 36.8694 7.39722 36.8694 8.43063C36.8694 9.46402 36.4969 10.4551 35.8339 11.1858L20.0006 28.6355L13.3339 30.4722L15.0006 23.125L30.8339 5.67542Z" stroke="#7A9CA5" stroke-width="2" stroke-linecap="round" stroke-linejoin="round"/>
</svg>
