<svg width="41" height="48" viewBox="0 0 41 48" fill="none" xmlns="http://www.w3.org/2000/svg">
<path d="M37.584 32.8745V38.5145C37.5861 39.0381 37.4885 39.5563 37.2979 40.036C37.1074 40.5158 36.8277 40.9465 36.4772 41.3003C36.1266 41.6543 35.7127 41.9239 35.2621 42.0916C34.8112 42.2593 34.3337 42.3215 33.8599 42.2745C28.6031 41.6459 23.5535 39.6691 19.1169 36.5029C14.9893 33.6164 11.4898 29.7652 8.86697 25.2229C5.97985 20.3184 4.18313 14.7344 3.62239 8.92329C3.57969 8.40341 3.63585 7.87946 3.78724 7.38475C3.93865 6.89005 4.18198 6.43547 4.50178 6.04995C4.82157 5.66442 5.21081 5.35638 5.64469 5.14549C6.07859 4.93457 6.54763 4.8254 7.02197 4.82489H12.147C12.976 4.81592 13.7798 5.139 14.4084 5.73394C15.037 6.32887 15.4476 7.15506 15.5636 8.05849C15.7799 9.86342 16.1811 11.6356 16.7595 13.3413C16.9893 14.0142 17.0391 14.7455 16.9028 15.4486C16.7666 16.1516 16.45 16.797 15.9907 17.3081L13.8211 19.6957C16.253 24.4023 19.7943 28.2994 24.0711 30.9757L26.2407 28.5881C26.7052 28.0826 27.2917 27.7343 27.9304 27.5844C28.5693 27.4344 29.2339 27.4891 29.8453 27.7421C31.3952 28.3785 33.0057 28.8201 34.6457 29.0581C35.4756 29.1869 36.2334 29.647 36.7753 30.3506C37.317 31.0543 37.6049 31.9526 37.584 32.8745Z" stroke="#7A9CA5" stroke-width="2" stroke-linecap="round" stroke-linejoin="round"/>
</svg>
